<svg id="_001-home" data-name="001-home" xmlns="http://www.w3.org/2000/svg" width="30.485" height="28.976" viewBox="0 0 30.485 28.976">
  <g id="Group_2268" data-name="Group 2268" transform="translate(0 0)">
    <g id="Group_2267" data-name="Group 2267">
      <path id="Path_4239" data-name="Path 4239" d="M29.973,25.549,16.3,13.086a1.556,1.556,0,0,0-2.106,0L.512,25.549a1.563,1.563,0,0,0,1.053,2.719H3.749V40.755a.9.9,0,0,0,.9.9h7.5a.9.9,0,0,0,.9-.9V33.173h4.406v7.582a.9.9,0,0,0,.9.9h7.5a.9.9,0,0,0,.9-.9V28.268h2.185a1.563,1.563,0,0,0,1.053-2.719Z" transform="translate(0 -12.675)" fill="#b6b7b7"/>
    </g>
  </g>
  <g id="Group_2270" data-name="Group 2270" transform="translate(20.481 1.789)">
    <g id="Group_2269" data-name="Group 2269">
      <path id="Path_4240" data-name="Path 4240" d="M349.994,42.73h-6.021l6.917,6.29V43.626A.9.9,0,0,0,349.994,42.73Z" transform="translate(-343.973 -42.73)" fill="#b6b7b7"/>
    </g>
  </g>
</svg>
